<svg xmlns="http://www.w3.org/2000/svg" viewBox="0 0 210.14 15"><defs><style>.cls-1{fill:none;}.cls-2{fill:#febc11;}.cls-3{fill:#15385f;}</style></defs><title>ucsb-wordmark</title><g id="Layer_2" data-name="Layer 2"><g id="Layer_1-2" data-name="Layer 1"><path class="cls-1" d="M160.36,12a1.93,1.93,0,0,0,.68-.28,1.6,1.6,0,0,0,.5-.53,1.53,1.53,0,0,0,.19-.79,1.28,1.28,0,0,0-.25-.82,1.63,1.63,0,0,0-.64-.48,3.23,3.23,0,0,0-.83-.22,6.48,6.48,0,0,0-.84-.06h-2.4v3.28h2.85A3.48,3.48,0,0,0,160.36,12Z"/><polygon class="cls-1" points="130.23 4.56 128.48 9.03 132 9.03 130.23 4.56"/><polygon class="cls-1" points="200.72 9.03 204.24 9.03 202.47 4.56 200.72 9.03"/><path class="cls-1" d="M116.9,6a2,2,0,0,0,.64-.27,1.37,1.37,0,0,0,.46-.49,1.47,1.47,0,0,0,.17-.73,1.28,1.28,0,0,0-.69-1.2,2.45,2.45,0,0,0-.69-.23A4.29,4.29,0,0,0,116,3h-2.16V6.12h2.3A3.24,3.24,0,0,0,116.9,6Z"/><path class="cls-1" d="M145.37,6.29a2.82,2.82,0,0,0,.86-.18,1.49,1.49,0,0,0,.64-.48,1.46,1.46,0,0,0,.25-.92,1.53,1.53,0,0,0-.22-.87,1.53,1.53,0,0,0-.57-.5,2.58,2.58,0,0,0-.79-.23,6.77,6.77,0,0,0-.88-.06h-2.08V6.33h1.87C144.75,6.33,145,6.32,145.37,6.29Z"/><path class="cls-1" d="M188.25,6.3a2.82,2.82,0,0,0,.86-.18,1.49,1.49,0,0,0,.64-.48,1.46,1.46,0,0,0,.25-.92,1.53,1.53,0,0,0-.22-.87,1.53,1.53,0,0,0-.57-.5,2.54,2.54,0,0,0-.79-.23,6.7,6.7,0,0,0-.87-.06h-2.08V6.33h1.87C187.63,6.33,187.93,6.32,188.25,6.3Z"/><path class="cls-1" d="M117.47,12a1.93,1.93,0,0,0,.68-.28,1.62,1.62,0,0,0,.5-.53,1.54,1.54,0,0,0,.19-.79,1.27,1.27,0,0,0-.26-.82,1.6,1.6,0,0,0-.64-.48,3.24,3.24,0,0,0-.83-.22,6.46,6.46,0,0,0-.84-.06h-2.4v3.28h2.85A3.48,3.48,0,0,0,117.47,12Z"/><path class="cls-1" d="M159.79,6a2,2,0,0,0,.64-.27,1.38,1.38,0,0,0,.46-.49,1.47,1.47,0,0,0,.17-.73,1.35,1.35,0,0,0-.19-.74,1.37,1.37,0,0,0-.5-.46,2.42,2.42,0,0,0-.69-.23,4.3,4.3,0,0,0-.75-.07h-2.16V6.13h2.3A3.21,3.21,0,0,0,159.79,6Z"/><polygon class="cls-1" points="173.12 4.56 171.36 9.04 174.88 9.04 173.12 4.56"/><path class="cls-1" d="M22.23,15c-4.22,0-6.81-2.9-6.81-7.39V7.45c0-4.33,2.9-7.45,6.92-7.45,1.84,0,3.43.61,4.18,2V.36h1.59V4.78H26.62a4,4,0,0,0-4.33-3.37c-3,0-5,2.35-5,6v.16c0,3.72,1.88,6,5,6,2.39,0,4-1.2,4.41-3.57l1.62.17C27.74,13.4,25.44,15,22.24,15h187.9v-.23h-3.58l-1.24-3.05h-5.6l-1.2,3.05H195L201.24.36h2.62l6.27,14.41V0H40.64a5.66,5.66,0,0,1,4.88,2.3l-2,1.76a3.8,3.8,0,0,0-3.25-1.5,1.75,1.75,0,0,0-1.94,1.65c0,1.05,1.4,1.51,3.09,2,2.17.57,4.49,1.41,4.49,4.17S43.57,15,40.25,15c-2.66,0-4.57-.89-5.68-2.66l2.18-1.86a4.61,4.61,0,0,0,3.77,2c1.38,0,2.23-.6,2.23-1.56,0-1.22-.79-1.49-2.8-2.05-2.37-.66-4.78-1.69-4.78-4.33S37.4,0,40.59,0H0V15ZM182.3.37h5.58A9.84,9.84,0,0,1,190,.58a5,5,0,0,1,1.73.71,3.58,3.58,0,0,1,1.18,1.34,4.55,4.55,0,0,1,.44,2.11,4.22,4.22,0,0,1-.79,2.59,3.56,3.56,0,0,1-2.32,1.35l3.66,6.09h-3.81L187,9h-1.57v5.76H182.3Zm-10.41,0h2.62l6.27,14.41H177.2L176,11.72h-5.59l-1.2,3.05h-3.5Zm-18.3,0H159a13.41,13.41,0,0,1,1.88.13,5.14,5.14,0,0,1,1.7.53,3.27,3.27,0,0,1,1.22,1.11A3.39,3.39,0,0,1,164.24,4a3,3,0,0,1-.68,2,3.71,3.71,0,0,1-1.8,1.15v0a4.14,4.14,0,0,1,1.29.4,3.5,3.5,0,0,1,1,.75,3.2,3.2,0,0,1,.64,1.07,3.71,3.71,0,0,1,.22,1.3,3.46,3.46,0,0,1-.49,1.9,3.82,3.82,0,0,1-1.26,1.23,5.54,5.54,0,0,1-1.74.67,9.33,9.33,0,0,1-1.92.2h-5.9Zm-14.18,0H145a9.86,9.86,0,0,1,2.09.21,5,5,0,0,1,1.73.71A3.56,3.56,0,0,1,150,2.63a4.55,4.55,0,0,1,.44,2.11,4.22,4.22,0,0,1-.79,2.59,3.56,3.56,0,0,1-2.32,1.35L151,14.77h-3.81l-3-5.76h-1.57v5.76h-3.18ZM129,.36h2.62l6.27,14.41h-3.58l-1.24-3.05h-5.59l-1.2,3.05h-3.5Zm-18.3,0h5.37A13.42,13.42,0,0,1,118,.5a5.17,5.17,0,0,1,1.7.53,3.28,3.28,0,0,1,1.22,1.11A3.41,3.41,0,0,1,121.35,4a3,3,0,0,1-.68,2,3.71,3.71,0,0,1-1.8,1.15v0a4.11,4.11,0,0,1,1.29.4,3.47,3.47,0,0,1,1,.75,3.2,3.2,0,0,1,.64,1.07,3.71,3.71,0,0,1,.22,1.3,3.46,3.46,0,0,1-.49,1.9,3.85,3.85,0,0,1-1.26,1.23,5.54,5.54,0,0,1-1.74.67,9.34,9.34,0,0,1-1.92.2h-5.9ZM98.38.36l6.27,14.41h-3.58l-1.24-3.05H94.23L93,14.77h-3.5L95.75.36ZM79.5.36H90.9V3.17H86.65v11.6H83.48V3.17h-4ZM63.63.36h4.32l6.13,10h0V.36h3.18V14.77H73.13L66.84,4.51h0V14.77H63.63ZM53,.36H55.6l6.27,14.41H58.29L57,11.72H51.45l-1.2,3.05h-3.5ZM0,.37H5.25V1.75H3.41V9.28c0,3.06,1.08,4.25,3.51,4.25s3.72-.94,3.72-4.51V1.75H8.8V.37H14V1.75H12.41V9.26c0,3.55-1.77,5.74-5.53,5.74-3.35,0-5.25-2-5.25-5.51V1.75H0Z"/><polygon class="cls-1" points="54.2 4.56 52.45 9.03 55.97 9.03 54.2 4.56"/><polygon class="cls-1" points="96.97 4.56 95.22 9.03 98.74 9.03 96.97 4.56"/><path class="cls-2" d="M170.37,11.72H176l1.24,3.05h3.58L174.52.36h-2.62l-6.23,14.41h3.5Zm2.75-7.16L174.89,9h-3.52Z"/><path class="cls-2" d="M161.42,14.57a5.54,5.54,0,0,0,1.74-.67,3.82,3.82,0,0,0,1.26-1.23,3.46,3.46,0,0,0,.49-1.9,3.71,3.71,0,0,0-.22-1.3A3.2,3.2,0,0,0,164,8.39a3.5,3.5,0,0,0-1-.75,4.14,4.14,0,0,0-1.29-.4v0a3.71,3.71,0,0,0,1.8-1.15,3,3,0,0,0,.68-2,3.39,3.39,0,0,0-.47-1.89A3.27,3.27,0,0,0,162.55,1a5.14,5.14,0,0,0-1.7-.53A13.41,13.41,0,0,0,159,.36h-5.37V14.77h5.9A9.33,9.33,0,0,0,161.42,14.57ZM156.77,3h2.16a4.3,4.3,0,0,1,.75.07,2.42,2.42,0,0,1,.69.23,1.37,1.37,0,0,1,.5.46,1.35,1.35,0,0,1,.19.74,1.47,1.47,0,0,1-.17.73,1.38,1.38,0,0,1-.46.49,2,2,0,0,1-.64.27,3.21,3.21,0,0,1-.72.08h-2.3Zm0,5.76h2.4a6.48,6.48,0,0,1,.84.06,3.23,3.23,0,0,1,.83.22,1.63,1.63,0,0,1,.64.48,1.28,1.28,0,0,1,.25.82,1.53,1.53,0,0,1-.19.79,1.6,1.6,0,0,1-.5.53,1.93,1.93,0,0,1-.68.28,3.48,3.48,0,0,1-.74.08h-2.85Z"/><path class="cls-2" d="M185.47,9H187l3,5.76h3.81L190.2,8.69a3.56,3.56,0,0,0,2.32-1.35,4.22,4.22,0,0,0,.79-2.59,4.55,4.55,0,0,0-.44-2.11,3.58,3.58,0,0,0-1.18-1.34A5,5,0,0,0,190,.58a9.84,9.84,0,0,0-2.09-.21H182.3V14.77h3.18Zm0-6h2.08a6.7,6.7,0,0,1,.87.06,2.54,2.54,0,0,1,.79.23,1.53,1.53,0,0,1,.57.5,1.53,1.53,0,0,1,.22.87,1.46,1.46,0,0,1-.25.92,1.49,1.49,0,0,1-.64.48,2.82,2.82,0,0,1-.86.18c-.32,0-.62,0-.91,0h-1.87Z"/><path class="cls-2" d="M127.48,11.72h5.59l1.24,3.05h3.58L131.63.36H129l-6.23,14.41h3.5Zm2.75-7.16L132,9h-3.52Z"/><polygon class="cls-3" points="210.14 14.77 210.14 14.77 210.14 14.77 210.14 14.77"/><path class="cls-2" d="M201.24.36,195,14.77h3.5l1.2-3.05h5.6l1.24,3.05h3.58L203.87.36ZM200.72,9l1.75-4.48L204.24,9Z"/><path class="cls-2" d="M118.53,14.57a5.54,5.54,0,0,0,1.74-.67,3.85,3.85,0,0,0,1.26-1.23,3.46,3.46,0,0,0,.49-1.9,3.71,3.71,0,0,0-.22-1.3,3.2,3.2,0,0,0-.64-1.07,3.47,3.47,0,0,0-1-.75,4.11,4.11,0,0,0-1.29-.4v0a3.71,3.71,0,0,0,1.8-1.15,3,3,0,0,0,.68-2,3.41,3.41,0,0,0-.47-1.89A3.28,3.28,0,0,0,119.66,1,5.17,5.17,0,0,0,118,.5a13.42,13.42,0,0,0-1.88-.13h-5.37V14.77h5.9A9.34,9.34,0,0,0,118.53,14.57ZM113.88,3H116a4.29,4.29,0,0,1,.75.07,2.45,2.45,0,0,1,.69.23,1.28,1.28,0,0,1,.69,1.2,1.47,1.47,0,0,1-.17.73,1.37,1.37,0,0,1-.46.49,2,2,0,0,1-.64.27,3.24,3.24,0,0,1-.72.08h-2.3Zm0,5.76h2.4a6.46,6.46,0,0,1,.84.06,3.24,3.24,0,0,1,.83.22,1.6,1.6,0,0,1,.64.48,1.27,1.27,0,0,1,.26.82,1.54,1.54,0,0,1-.19.79,1.62,1.62,0,0,1-.5.53,1.93,1.93,0,0,1-.68.28,3.48,3.48,0,0,1-.74.08h-2.85Z"/><path class="cls-2" d="M142.59,9h1.57l3,5.76H151l-3.66-6.09a3.56,3.56,0,0,0,2.32-1.35,4.22,4.22,0,0,0,.79-2.59A4.55,4.55,0,0,0,150,2.63a3.56,3.56,0,0,0-1.18-1.34,5,5,0,0,0-1.73-.71A9.86,9.86,0,0,0,145,.36h-5.58V14.77h3.18Zm0-6h2.08a6.77,6.77,0,0,1,.88.06,2.58,2.58,0,0,1,.79.23,1.53,1.53,0,0,1,.57.5,1.53,1.53,0,0,1,.22.87,1.46,1.46,0,0,1-.25.92,1.49,1.49,0,0,1-.64.48,2.82,2.82,0,0,1-.86.18c-.32,0-.62,0-.91,0h-1.87Z"/><path class="cls-2" d="M51.45,11.72H57l1.24,3.05h3.58L55.6.36H53L46.75,14.77h3.5ZM54.2,4.56,56,9H52.45Z"/><path class="cls-2" d="M93,14.77l1.2-3.05h5.59l1.24,3.05h3.58L98.38.36H95.75L89.52,14.77ZM97,4.56,98.74,9H95.22Z"/><polygon class="cls-2" points="66.8 4.51 66.84 4.51 73.13 14.77 77.28 14.77 77.28 0.36 74.11 0.36 74.11 10.38 74.07 10.38 67.94 0.36 63.63 0.36 63.63 14.77 66.8 14.77 66.8 4.51"/><polygon class="cls-2" points="83.48 14.77 86.65 14.77 86.65 3.17 90.9 3.17 90.9 0.36 79.5 0.36 79.5 3.17 83.48 3.17 83.48 14.77"/><path class="cls-2" d="M1.63,9.49C1.63,13,3.53,15,6.87,15c3.76,0,5.53-2.18,5.53-5.74V1.75H14V.37H8.8V1.75h1.84V9c0,3.57-1.39,4.51-3.72,4.51S3.4,12.35,3.4,9.28V1.75H5.25V.37H0V1.75H1.63Z"/><path class="cls-2" d="M28.3,10.15,26.68,10c-.37,2.37-2,3.57-4.41,3.57-3.14,0-5-2.24-5-6V7.43c0-3.67,2-6,5-6a4,4,0,0,1,4.33,3.37h1.49V.36H26.52V2c-.75-1.35-2.35-2-4.18-2-4,0-6.92,3.12-6.92,7.45v.16C15.41,12.1,18,15,22.23,15h0C25.44,15,27.74,13.4,28.3,10.15Z"/><path class="cls-2" d="M35.16,4.5c0,2.64,2.41,3.66,4.78,4.33,2,.57,2.8.84,2.8,2.05,0,1-.86,1.56-2.23,1.56a4.61,4.61,0,0,1-3.77-2l-2.18,1.86c1.1,1.76,3,2.66,5.68,2.66,3.32,0,5.64-1.91,5.64-4.66s-2.32-3.6-4.49-4.17c-1.69-.45-3.09-.91-3.09-2a1.75,1.75,0,0,1,1.94-1.65,3.8,3.8,0,0,1,3.25,1.5l2-1.76A5.66,5.66,0,0,0,40.64,0h0C37.4,0,35.16,1.85,35.16,4.5Z"/></g></g></svg>