<?xml version="1.0" standalone="no"?>
<!DOCTYPE svg PUBLIC "-//W3C//DTD SVG 20010904//EN"
 "http://www.w3.org/TR/2001/REC-SVG-20010904/DTD/svg10.dtd">
<svg version="1.0" xmlns="http://www.w3.org/2000/svg"
 width="700.000000pt" height="700.000000pt" viewBox="0 0 700.000000 700.000000"
 preserveAspectRatio="xMidYMid meet">
<metadata>
Created by potrace 1.11, written by Peter Selinger 2001-2013
</metadata>
<g transform="translate(0.000000,700.000000) scale(0.100000,-0.100000)"
fill="#000000" stroke="none">
<path d="M3387 5794 c-1 -1 -69 -5 -152 -8 -82 -4 -159 -9 -170 -11 -11 -3
-52 -7 -90 -9 -39 -3 -87 -8 -108 -11 -20 -3 -54 -7 -74 -10 -128 -18 -233
-38 -463 -90 -61 -13 -155 -41 -271 -79 -670 -218 -1282 -647 -1600 -1121
-140 -209 -240 -466 -273 -700 -16 -113 -19 -392 -5 -475 5 -30 11 -70 14 -87
24 -152 94 -350 180 -509 40 -75 141 -230 168 -260 7 -7 28 -32 47 -56 45 -57
219 -230 297 -297 184 -156 446 -327 693 -451 255 -128 598 -250 793 -281 42
-7 77 -16 77 -20 0 -4 -26 -1 -57 7 -63 15 -79 17 -71 9 4 -4 198 -49 258 -60
207 -36 234 -40 340 -51 36 -3 72 -8 81 -9 131 -25 849 -26 1010 0 13 2 53 6
89 10 91 9 121 13 155 19 17 3 48 8 70 11 220 32 647 148 810 220 17 7 59 25
94 40 85 35 288 135 381 188 295 165 583 396 781 624 256 296 408 636 437 973
14 171 4 396 -23 520 -4 17 -8 41 -9 53 -3 21 -21 84 -33 117 -4 8 -7 17 -8
20 -15 60 -123 302 -137 308 -5 2 -8 7 -8 12 0 33 -173 268 -291 393 -314 336
-829 660 -1299 817 -52 17 -104 35 -115 40 -57 23 -327 93 -410 106 -22 3 -44
10 -48 14 -5 4 -28 6 -50 3 -33 -4 -39 -2 -27 7 12 10 11 11 -7 7 -12 -3 -23
-1 -25 4 -3 8 -192 36 -313 45 -38 3 -79 7 -91 9 -35 7 -541 25 -547 19z m726
-61 c-7 -2 -21 -2 -30 0 -10 3 -4 5 12 5 17 0 24 -2 18 -5z m125 -10 c-10 -2
-28 -2 -40 0 -13 2 -5 4 17 4 22 1 32 -1 23 -4z m72 -3 c23 -8 22 -8 -8 -7
-19 1 -36 5 -38 9 -6 10 13 9 46 -2z m-625 -144 c55 -4 111 -9 125 -11 22 -3
46 -6 155 -20 32 -4 254 -42 295 -50 14 -3 34 -7 45 -9 11 -2 43 -10 70 -16
28 -6 61 -14 75 -16 107 -20 324 -96 455 -159 138 -67 299 -171 195 -127 -64
27 -414 116 -535 135 -16 3 -61 10 -98 16 -37 6 -89 14 -115 17 -26 3 -54 7
-62 9 -93 24 -620 25 -770 1 -14 -3 -59 -7 -100 -11 -60 -5 -219 -35 -320 -60
-331 -83 -679 -257 -902 -453 -269 -236 -483 -595 -557 -934 -32 -147 -36
-191 -35 -358 1 -357 113 -675 347 -985 218 -289 467 -471 861 -629 143 -58
459 -138 596 -151 36 -3 83 -8 105 -10 216 -23 624 -23 790 0 17 2 57 6 90 10
85 8 151 19 265 41 184 37 410 114 569 194 199 100 320 200 479 395 31 39 59
72 62 75 3 3 21 27 40 53 57 78 73 95 44 47 -35 -58 -66 -101 -129 -175 -51
-62 -206 -226 -238 -254 -10 -9 -31 -26 -45 -39 -173 -148 -364 -277 -537
-361 -71 -35 -161 -79 -200 -98 -273 -138 -757 -291 -1005 -318 -30 -4 -67 -8
-82 -9 -16 -2 -28 0 -28 4 0 4 30 10 68 14 98 10 120 13 192 30 301 68 557
154 788 262 50 23 92 46 92 49 0 3 -3 4 -7 2 -17 -10 -242 -76 -298 -87 -33
-7 -73 -16 -90 -21 -26 -7 -145 -28 -250 -45 -16 -2 -41 -6 -55 -9 -46 -8 -84
-14 -140 -20 -30 -3 -68 -8 -85 -10 -171 -24 -525 -24 -685 0 -14 2 -46 6 -72
9 -27 4 -69 9 -95 12 -50 6 -216 35 -313 55 -253 53 -498 133 -640 211 -108
60 -234 138 -238 149 -2 5 -9 9 -15 9 -7 0 -24 10 -39 23 -16 12 -49 38 -74
57 -203 155 -467 441 -576 625 -77 131 -163 320 -174 385 -3 14 -7 32 -9 40
-3 8 -7 33 -10 55 -4 22 -10 55 -15 74 -5 19 -8 36 -7 37 1 1 25 5 52 8 28 4
82 11 120 17 39 5 88 12 110 14 22 3 51 7 65 10 14 2 49 7 79 10 30 4 63 8 74
11 10 2 45 6 76 10 31 3 59 8 63 10 4 3 4 24 0 47 -10 58 -9 320 1 388 l9 55
-129 18 c-158 22 -193 26 -218 30 -11 2 -80 12 -154 22 l-133 18 7 50 c21 162
155 439 309 638 193 250 439 469 716 635 122 74 278 148 303 144 4 -1 7 4 7
10 0 5 3 8 8 5 4 -2 48 9 97 25 86 29 180 53 248 64 17 3 46 10 62 15 97 30
474 85 660 96 55 4 101 7 102 8 5 4 209 -1 308 -8z m635 -440 c63 -4 122 -9
130 -11 8 -2 35 -6 60 -9 245 -29 548 -119 765 -228 68 -34 239 -140 255 -157
3 -3 37 -33 75 -65 39 -33 125 -116 192 -185 129 -131 165 -186 227 -344 36
-91 68 -237 53 -238 -28 -2 -65 -7 -102 -12 -55 -8 -202 -28 -245 -33 -19 -2
-48 -6 -65 -9 -16 -2 -52 -7 -80 -10 -27 -4 -75 -10 -105 -15 -30 -5 -76 -11
-102 -14 -73 -9 -141 -18 -158 -21 -9 -2 -43 -6 -75 -10 -33 -4 -69 -9 -80
-11 -11 -2 -44 -7 -74 -10 -30 -3 -63 -7 -74 -10 -11 -2 -45 -6 -76 -10 -31
-3 -65 -8 -76 -10 -11 -2 -42 -6 -70 -9 -27 -3 -77 -10 -110 -15 -33 -5 -82
-12 -110 -15 -75 -8 -127 -15 -155 -20 -14 -3 -50 -7 -80 -10 -30 -3 -66 -8
-80 -10 -14 -2 -47 -7 -75 -10 -71 -8 -135 -15 -170 -20 -16 -2 -57 -6 -90
-10 -33 -4 -70 -8 -83 -10 -13 -2 -53 -7 -90 -11 -37 -3 -89 -10 -116 -14 -28
-4 -70 -7 -94 -6 -75 3 -22 -21 66 -29 42 -4 86 -9 97 -11 11 -2 45 -7 75 -10
30 -3 66 -7 80 -9 14 -2 52 -7 85 -10 33 -3 71 -8 85 -10 14 -3 48 -7 75 -10
28 -3 84 -10 125 -15 41 -5 98 -12 125 -15 28 -3 66 -7 85 -10 19 -2 58 -7 85
-10 57 -6 118 -14 155 -20 25 -4 168 -23 225 -30 60 -7 127 -17 143 -19 18 -4
124 -18 157 -21 25 -3 102 -13 149 -20 64 -9 100 -14 151 -20 28 -4 60 -8 71
-10 12 -2 48 -7 80 -10 33 -4 67 -9 78 -11 10 -2 44 -6 75 -9 31 -4 63 -8 71
-10 8 -2 38 -7 65 -10 49 -6 159 -21 223 -31 29 -4 32 -8 26 -32 -3 -15 -5
-37 -5 -50 1 -14 -3 -20 -10 -17 -6 4 -10 1 -9 -6 5 -37 -80 -211 -163 -336
-83 -125 -295 -333 -439 -431 -291 -199 -672 -321 -1118 -360 -109 -9 -403 -9
-500 1 -301 29 -640 138 -839 271 -187 124 -379 296 -484 433 -137 180 -237
401 -271 603 -3 19 -9 46 -12 60 -10 38 -12 370 -3 410 4 19 10 55 14 80 29
207 168 490 330 670 113 127 274 264 425 362 212 138 570 249 880 274 47 3 86
7 87 8 4 3 241 -2 343 -8z m1733 -2161 c-3 -9 -8 -14 -10 -11 -3 3 -2 9 2 15
9 16 15 13 8 -4z m-22 -62 c-12 -20 -14 -14 -5 12 4 9 9 14 11 11 3 -2 0 -13
-6 -23z m-28 -68 c-3 -9 -8 -14 -10 -11 -3 3 -2 9 2 15 9 16 15 13 8 -4z m-34
-74 c-12 -23 -24 -39 -26 -38 -2 2 7 22 19 45 13 22 24 39 26 37 2 -2 -6 -22
-19 -44z m-55 -101 c-15 -28 -29 -49 -31 -47 -4 5 47 97 53 97 3 0 -7 -23 -22
-50z m-2334 -1352 c0 -4 -17 -8 -37 -9 -21 0 -47 -2 -58 -4 -11 -3 -63 -7
-115 -10 -52 -3 -112 -8 -133 -10 -34 -4 -310 -7 -414 -6 -24 1 -43 4 -43 9 0
4 98 7 218 7 231 0 523 16 539 29 7 6 43 0 43 -6z m-1070 -7 c0 -4 -11 -6 -25
-3 -14 2 -25 6 -25 8 0 2 11 4 25 4 14 0 25 -4 25 -9z m76 -9 c-5 -8 -66 -4
-66 4 0 2 16 4 36 4 19 0 33 -4 30 -8z m112 -3 c40 -1 72 -6 72 -12 0 -5 -7
-6 -16 -3 -9 3 -47 6 -85 6 -45 0 -68 4 -64 10 4 6 10 8 14 6 4 -3 40 -6 79
-7z"/>
<path d="M2382 3653 c-11 -34 -10 -133 2 -176 9 -30 15 -31 114 -12 14 2 71
11 142 20 181 26 541 83 546 87 2 3 -28 9 -68 13 -40 5 -75 9 -78 10 -3 1 -32
5 -65 9 -33 4 -85 11 -115 16 -30 5 -77 12 -105 15 -27 3 -61 8 -75 10 -47 7
-185 26 -236 31 -50 6 -52 5 -62 -23z"/>
</g>
</svg>
