<svg xmlns="http://www.w3.org/2000/svg" viewBox="0 0 529.75 130.51"><defs><style>.cls-1{isolation:isolate;}.cls-2{fill:#273a5e;}</style></defs><title>Asset 1</title><g id="Layer_2" data-name="Layer 2"><g id="Template"><g class="cls-1"><g class="cls-1"><path class="cls-2" d="M0,69.63H3.78V45.31H0V42.45H11.72c10.33,0,15.21,6.38,15.21,14.74v.38c0,8.32-4.79,14.91-15.29,14.91H0Zm11.55-.13c7.73,0,11.59-4.62,11.59-12V57.2c0-6.93-3.36-11.8-11.64-11.8H7.44V69.5Z"/><path class="cls-2" d="M30.2,61.73V61.4c0-6.64,4.24-11.26,10.29-11.26,5.08,0,9.87,3.07,9.87,10.92v1.13H33.81c.17,5,2.56,7.77,7.06,7.77,3.4,0,5.38-1.26,5.84-3.82h3.49c-.76,4.41-4.41,6.72-9.37,6.72C34.61,72.86,30.2,68.5,30.2,61.73Zm16.59-2.35C46.46,54.84,44.1,53,40.49,53s-6,2.44-6.55,6.34Z"/><path class="cls-2" d="M53,80.13V77.4h3.07v-24H53V50.52H59.6v3.86A8.78,8.78,0,0,1,67,50.14c5.76,0,10,4.2,10,11v.34c0,6.72-3.95,11.34-10,11.34a8.22,8.22,0,0,1-7.44-4.07V77.4H63v2.73ZM73.42,61.69v-.34c0-5.54-3.07-8.32-6.76-8.32-4.07,0-7.18,2.73-7.18,8.32v.34c0,5.54,3,8.27,7.23,8.27S73.42,67,73.42,61.69Z"/></g><g class="cls-1"><path class="cls-2" d="M85.93,72.86c-4,0-7.14-2-7.14-6.47,0-5.12,5.29-6.81,10.84-6.81H92.7V58c0-3.7-1.47-5-4.62-5-2.94,0-4.54,1.09-4.87,3.95H79.72c.42-5.17,4.37-6.85,8.53-6.85s7.94,1.51,7.94,7.86V69.76h2.94v2.73H92.7v-3C91.23,71.73,89.08,72.86,85.93,72.86ZM92.7,64.8V62.07H89.76c-4.33,0-7.48,1.13-7.48,4.33,0,2,1,3.7,4,3.7C89.88,70.09,92.7,68.2,92.7,64.8Z"/></g><g class="cls-1"><path class="cls-2" d="M101,72.49V69.76H104V53.37h-3.15V50.52h6.64v4.2c1.05-2.31,3.28-4.54,7.9-4.58v3.44c-4.79,0-7.9,1.47-7.9,6.85v9.32h3.36v2.73Z"/></g><g class="cls-1"><path class="cls-2" d="M120.67,67V53.46h-3.15V50.52h3.15v-5h3.49v5h5.67v2.94h-5.67V66.65c0,2.1,1,3.19,3.15,3.19a9.12,9.12,0,0,0,2.86-.5v2.94a10.11,10.11,0,0,1-3.15.5C122.6,72.78,120.67,70.43,120.67,67Z"/></g><g class="cls-1"><path class="cls-2" d="M132.64,72.49V69.76h3.07V53.37h-3.15V50.52h6.64v3.61a6.92,6.92,0,0,1,6.43-4A6.26,6.26,0,0,1,152,54.59a8,8,0,0,1,7.27-4.45c3.95,0,7.27,2.35,7.27,8.74V69.76h3.07v2.73h-9.7V69.76h3.15V58.62c0-3.87-1.51-5.46-4.54-5.46A5.52,5.52,0,0,0,152.88,59V69.76H156v2.73h-9.79V69.76h3.15V58.62c0-3.87-1.51-5.46-4.54-5.46A5.52,5.52,0,0,0,139.19,59V69.76h3.15v2.73Z"/></g><g class="cls-1"><path class="cls-2" d="M171.53,61.73V61.4c0-6.64,4.24-11.26,10.29-11.26,5.08,0,9.87,3.07,9.87,10.92v1.13H175.14c.17,5,2.56,7.77,7.06,7.77,3.4,0,5.38-1.26,5.84-3.82h3.49c-.76,4.41-4.41,6.72-9.37,6.72C175.94,72.86,171.53,68.5,171.53,61.73Zm16.59-2.35c-.34-4.54-2.69-6.34-6.3-6.34s-6,2.44-6.55,6.34Z"/></g><g class="cls-1"><path class="cls-2" d="M194.17,72.49V69.76h3.07V53.37h-3.15V50.52h6.64v3.7a7.55,7.55,0,0,1,6.89-4.07c4.41,0,7.65,2.35,7.65,8.7V69.76h3.07v2.73h-9.7V69.76h3.15V58.58c0-3.7-1.68-5.42-5.08-5.42a5.69,5.69,0,0,0-6,5.92V69.76h3.15v2.73Z"/></g><g class="cls-1"><path class="cls-2" d="M222.26,67V53.46h-3.15V50.52h3.15v-5h3.49v5h5.67v2.94h-5.67V66.65c0,2.1,1,3.19,3.15,3.19a9.11,9.11,0,0,0,2.86-.5v2.94a10.11,10.11,0,0,1-3.15.5C224.2,72.78,222.26,70.43,222.26,67Z"/><path class="cls-2" d="M244.35,61.69v-.34c0-6.6,4.58-11.22,10.8-11.22s10.8,4.58,10.8,11.17v.34c0,6.64-4.58,11.22-10.84,11.22S244.35,68.12,244.35,61.69Zm18,0V61.4c0-5.08-2.81-8.36-7.18-8.36S248,56.31,248,61.35v.34c0,5,2.73,8.27,7.18,8.27S262.33,66.65,262.33,61.69Z"/><path class="cls-2" d="M268.84,72.49V69.76h3.07V53.46h-3.15V50.52h3.15V46.95c0-4.45,2.18-7.06,6.55-7.06a7.07,7.07,0,0,1,2.6.42v2.94a6.86,6.86,0,0,0-2.48-.46c-2.27,0-3.19,1.55-3.19,3.82v3.91h5.38v2.94h-5.38v16.3h3.95v2.73Z"/><path class="cls-2" d="M293.12,69.63h3.78V45.31h-3.78V42.45h22.31v7H312V45.31H300.55V55.64h9.2V53h3v8.36h-3V58.62h-9.2v11h12.31V64.8h3.4v7.69H293.12Z"/></g><g class="cls-1"><path class="cls-2" d="M317.27,72.49V69.76h3.07V42.87h-3.15V40h6.68V69.76h3.07v2.73Z"/></g><g class="cls-1"><path class="cls-2" d="M328.82,61.73V61.4c0-6.64,4.24-11.26,10.29-11.26,5.08,0,9.87,3.07,9.87,10.92v1.13H332.43c.17,5,2.56,7.77,7.06,7.77,3.4,0,5.38-1.26,5.84-3.82h3.49c-.76,4.41-4.41,6.72-9.37,6.72C333.23,72.86,328.82,68.5,328.82,61.73Zm16.59-2.35c-.34-4.54-2.69-6.34-6.3-6.34s-6,2.44-6.55,6.34Z"/></g><g class="cls-1"><path class="cls-2" d="M368.8,50.52h3.07V58h-3C368.13,55,366.11,53,362.38,53c-4,0-7.06,3.19-7.06,8.36v.34c0,5.38,2.94,8.23,7.18,8.23,3.11,0,5.92-1.81,6.3-5.38H372c-.46,4.75-4.28,8.28-9.58,8.28-6.13,0-10.75-4.33-10.75-11.13V61.4c0-6.72,4.79-11.26,10.67-11.26,3.7,0,5.54,1.47,6.43,3.23Z"/></g><g class="cls-1"><path class="cls-2" d="M377.7,67V53.46h-3.15V50.52h3.15v-5h3.49v5h5.67v2.94h-5.67V66.65c0,2.1,1,3.19,3.15,3.19a9.12,9.12,0,0,0,2.86-.5v2.94a10.11,10.11,0,0,1-3.15.5C379.64,72.78,377.7,70.43,377.7,67Z"/><path class="cls-2" d="M390.09,72.49V69.76h3.07V53.37H390V50.52h6.64v4.2c1.05-2.31,3.28-4.54,7.9-4.58v3.44c-4.79,0-7.9,1.47-7.9,6.85v9.32H400v2.73Z"/><path class="cls-2" d="M407.48,72.49V69.76h3.07V53.37H407.4V50.52H414V69.76h3.15v2.73Zm2.23-28.9a2.39,2.39,0,0,1,4.79,0,2.39,2.39,0,0,1-4.79,0Z"/></g><g class="cls-1"><path class="cls-2" d="M435.54,50.52h3.07V58h-3C434.87,55,432.85,53,429.11,53c-4,0-7.06,3.19-7.06,8.36v.34c0,5.38,2.94,8.23,7.18,8.23,3.11,0,5.92-1.81,6.3-5.38h3.23c-.46,4.75-4.29,8.28-9.58,8.28-6.13,0-10.75-4.33-10.75-11.13V61.4c0-6.72,4.79-11.26,10.67-11.26,3.7,0,5.54,1.47,6.43,3.23Z"/></g><g class="cls-1"><path class="cls-2" d="M448.94,72.86c-4,0-7.14-2-7.14-6.47,0-5.12,5.29-6.81,10.84-6.81h3.07V58c0-3.7-1.47-5-4.62-5-2.94,0-4.54,1.09-4.87,3.95h-3.49c.42-5.17,4.37-6.85,8.53-6.85s7.94,1.51,7.94,7.86V69.76h2.94v2.73H455.7v-3C454.23,71.73,452.09,72.86,448.94,72.86Zm6.76-8.07V62.07h-2.94c-4.33,0-7.48,1.13-7.48,4.33,0,2,1,3.7,4,3.7C452.88,70.09,455.7,68.2,455.7,64.8Z"/><path class="cls-2" d="M464.39,72.49V69.76h3.07V42.87h-3.15V40H471V69.76h3.07v2.73Z"/></g><g class="cls-1"><path class="cls-2" d="M7.31,122.86c-4,0-7.14-2-7.14-6.47,0-5.12,5.29-6.81,10.84-6.81h3.07V108c0-3.7-1.47-5-4.62-5-2.94,0-4.54,1.09-4.87,3.95H1.09c.42-5.17,4.37-6.85,8.53-6.85s7.94,1.51,7.94,7.86v11.76H20.5v2.73H14.07v-3C12.6,121.73,10.46,122.86,7.31,122.86Zm6.76-8.07v-2.73H11.13c-4.33,0-7.48,1.13-7.48,4.33,0,2,1,3.7,4,3.7C11.26,120.09,14.07,118.2,14.07,114.8Z"/></g><g class="cls-1"><path class="cls-2" d="M22.34,122.49v-2.73h3.07V103.37H22.26v-2.86H28.9v3.7a7.55,7.55,0,0,1,6.89-4.07c4.41,0,7.65,2.35,7.65,8.7v10.92H46.5v2.73h-9.7v-2.73h3.15V108.58c0-3.7-1.68-5.42-5.08-5.42a5.69,5.69,0,0,0-6,5.92v10.67H32v2.73Z"/></g><g class="cls-1"><path class="cls-2" d="M58.3,122.86c-5.76,0-9.91-4.07-9.91-10.92v-.34c0-6.72,4.2-11.47,10.25-11.47A7.87,7.87,0,0,1,65.82,104V92.87H62.54V90H69.3v29.74h3.07v2.73H65.82v-3.78A9.26,9.26,0,0,1,58.3,122.86Zm7.65-11.22v-.34c0-5.75-2.69-8.4-7-8.4s-7,3.07-7,8.53v.34c0,5.63,3,8.32,6.68,8.32C62.75,120.09,65.94,117.36,65.94,111.65Z"/></g><g class="cls-1"><path class="cls-2" d="M97.86,122.86c-8.7,0-14-6-14-15.21v-.34c0-8.91,6-15.33,14.24-15.33,3.78,0,7.06,1.26,8.61,4V92.45H110v9.37h-3.07c-1.22-5-4.33-6.93-8.91-6.93-6.22,0-10.38,4.83-10.38,12.39v.34c0,7.65,3.86,12.27,10.33,12.27,4.92,0,8.32-2.48,9.07-7.35h3.4C109.37,119.46,104.58,122.86,97.86,122.86Z"/></g><g class="cls-1"><path class="cls-2" d="M113.15,111.69v-.34c0-6.6,4.58-11.22,10.8-11.22s10.8,4.58,10.8,11.17v.34c0,6.64-4.58,11.22-10.84,11.22S113.15,118.12,113.15,111.69Zm18,0v-.29c0-5.08-2.81-8.36-7.18-8.36s-7.18,3.28-7.18,8.32v.34c0,5,2.73,8.28,7.18,8.28S131.13,116.65,131.13,111.69Z"/></g><g class="cls-1"><path class="cls-2" d="M137.25,122.49v-2.73h3.07V103.37h-3.15v-2.86h6.64v3.61a6.92,6.92,0,0,1,6.43-4,6.26,6.26,0,0,1,6.43,4.45,8,8,0,0,1,7.27-4.45c3.95,0,7.27,2.35,7.27,8.74v10.88h3.07v2.73h-9.7v-2.73h3.15V108.62c0-3.87-1.51-5.46-4.54-5.46A5.52,5.52,0,0,0,157.5,109v10.71h3.15v2.73h-9.79v-2.73H154V108.62c0-3.87-1.51-5.46-4.54-5.46a5.52,5.52,0,0,0-5.67,5.88v10.71H147v2.73Z"/><path class="cls-2" d="M176.1,130.13V127.4h3.07v-24H176v-2.86h6.64v3.86a8.78,8.78,0,0,1,7.44-4.24c5.76,0,10,4.2,10,11v.34c0,6.72-3.95,11.34-10,11.34a8.22,8.22,0,0,1-7.44-4.07v8.61h3.44v2.73Zm20.37-18.44v-.34c0-5.54-3.07-8.32-6.76-8.32-4.07,0-7.18,2.73-7.18,8.32v.34c0,5.54,3,8.28,7.23,8.28S196.48,117,196.48,111.69Z"/></g><g class="cls-1"><path class="cls-2" d="M212,122.86c-4.33,0-7.56-2.35-7.56-8.7v-10.8h-3.07v-2.86h6.55v13.78c0,3.82,1.68,5.54,5,5.54a5.71,5.71,0,0,0,5.88-6V103.37h-3.07v-2.86h6.55v19.24h3.07v2.73h-6.55v-3.7A7.51,7.51,0,0,1,212,122.86Z"/></g><g class="cls-1"><path class="cls-2" d="M229.91,117V103.46h-3.15v-2.94h3.15v-5h3.49v5h5.67v2.94h-5.67v13.19c0,2.1,1,3.19,3.15,3.19a9.11,9.11,0,0,0,2.86-.5v2.94a10.11,10.11,0,0,1-3.15.5C231.84,122.78,229.91,120.43,229.91,117Z"/></g><g class="cls-1"><path class="cls-2" d="M241.5,111.73v-.34c0-6.64,4.24-11.26,10.29-11.26,5.08,0,9.87,3.07,9.87,10.92v1.13H245.11c.17,5,2.56,7.77,7.06,7.77,3.4,0,5.38-1.26,5.84-3.82h3.49c-.76,4.41-4.41,6.72-9.37,6.72C245.91,122.86,241.5,118.5,241.5,111.73Zm16.59-2.35c-.34-4.54-2.69-6.34-6.3-6.34s-6,2.44-6.55,6.34Z"/><path class="cls-2" d="M264.56,122.49v-2.73h3.07V103.37h-3.15v-2.86h6.64v4.2c1.05-2.31,3.28-4.54,7.9-4.58v3.44c-4.79,0-7.9,1.47-7.9,6.85v9.33h3.36v2.73Z"/><path class="cls-2" d="M291.52,119.63h3.78V95.31h-3.78V92.45h22.31v7h-3.4V95.31H299v10.33h9.2V103h3v8.36h-3v-2.69H299v11h12.31V114.8h3.4v7.69H291.52Z"/></g><g class="cls-1"><path class="cls-2" d="M316.51,122.49v-2.73h3.07V103.37h-3.15v-2.86h6.64v3.7a7.55,7.55,0,0,1,6.89-4.07c4.41,0,7.65,2.35,7.65,8.7v10.92h3.07v2.73H331v-2.73h3.15V108.58c0-3.7-1.68-5.42-5.08-5.42a5.69,5.69,0,0,0-6,5.92v10.67h3.15v2.73Z"/></g><g class="cls-1"><path class="cls-2" d="M343,123.75h3.57c.5,2.52,2.61,3.82,6.34,3.82,4.33,0,7.06-2.06,7.06-6.76v-3.19a9.1,9.1,0,0,1-7.43,4.16c-5.75,0-10-4.37-10-10.42v-.29c0-6,4.2-10.92,10.25-10.92A7.87,7.87,0,0,1,360,104v-3.53h6.47v2.86h-3V121c0,6.39-4.37,9.49-10.5,9.49C346.46,130.51,343.6,127.44,343,123.75Zm17.1-12.64v-.29c0-4.92-2.69-7.77-7-7.77s-7,3.23-7,7.86v.34c0,4.79,3.07,7.65,6.76,7.65C357,118.87,360.11,116,360.11,111.1Z"/><path class="cls-2" d="M368.59,122.49v-2.73h3.07V103.37H368.5v-2.86h6.64v19.24h3.15v2.73Zm2.23-28.9a2.39,2.39,0,0,1,4.79,0,2.39,2.39,0,1,1-4.79,0Z"/></g><g class="cls-1"><path class="cls-2" d="M379.72,122.49v-2.73h3.07V103.37h-3.15v-2.86h6.64v3.7a7.55,7.55,0,0,1,6.89-4.07c4.41,0,7.65,2.35,7.65,8.7v10.92h3.07v2.73h-9.7v-2.73h3.15V108.58c0-3.7-1.68-5.42-5.08-5.42a5.69,5.69,0,0,0-6,5.92v10.67h3.15v2.73Z"/></g><g class="cls-1"><path class="cls-2" d="M405.76,111.73v-.34c0-6.64,4.24-11.26,10.29-11.26,5.08,0,9.87,3.07,9.87,10.92v1.13H409.37c.17,5,2.56,7.77,7.06,7.77,3.4,0,5.38-1.26,5.84-3.82h3.49c-.76,4.41-4.41,6.72-9.37,6.72C410.17,122.86,405.76,118.5,405.76,111.73Zm16.59-2.35c-.34-4.54-2.69-6.34-6.3-6.34s-6,2.44-6.55,6.34Z"/><path class="cls-2" d="M429.07,111.73v-.34c0-6.64,4.24-11.26,10.29-11.26,5.08,0,9.87,3.07,9.87,10.92v1.13H432.68c.17,5,2.56,7.77,7.06,7.77,3.4,0,5.38-1.26,5.84-3.82h3.49c-.76,4.41-4.41,6.72-9.37,6.72C433.48,122.86,429.07,118.5,429.07,111.73Zm16.59-2.35c-.34-4.54-2.69-6.34-6.3-6.34s-6,2.44-6.55,6.34Z"/><path class="cls-2" d="M452.13,122.49v-2.73h3.07V103.37H452v-2.86h6.64v4.2c1-2.31,3.28-4.54,7.9-4.58v3.44c-4.79,0-7.9,1.47-7.9,6.85v9.33H462v2.73Z"/><path class="cls-2" d="M469.51,122.49v-2.73h3.07V103.37h-3.15v-2.86h6.64v19.24h3.15v2.73Zm2.23-28.9a2.39,2.39,0,0,1,4.79,0,2.39,2.39,0,1,1-4.79,0Z"/></g><g class="cls-1"><path class="cls-2" d="M479.8,122.49v-2.73h3.07V103.37h-3.15v-2.86h6.64v3.7a7.55,7.55,0,0,1,6.89-4.07c4.41,0,7.65,2.35,7.65,8.7v10.92H504v2.73h-9.7v-2.73h3.15V108.58c0-3.7-1.68-5.42-5.08-5.42a5.69,5.69,0,0,0-6,5.92v10.67h3.15v2.73Z"/></g><g class="cls-1"><path class="cls-2" d="M506.31,123.75h3.57c.5,2.52,2.6,3.82,6.34,3.82,4.33,0,7.06-2.06,7.06-6.76v-3.19a9.1,9.1,0,0,1-7.44,4.16c-5.75,0-10-4.37-10-10.42v-.29c0-6,4.2-10.92,10.25-10.92a7.87,7.87,0,0,1,7.18,3.91v-3.53h6.47v2.86h-3V121c0,6.39-4.37,9.49-10.5,9.49C509.75,130.51,506.89,127.44,506.31,123.75Zm17.1-12.64v-.29c0-4.92-2.69-7.77-7-7.77s-7,3.23-7,7.86v.34c0,4.79,3.07,7.65,6.76,7.65C520.29,118.87,523.4,116,523.4,111.1Z"/></g></g><path class="cls-2" d="M238.44.51h3.64l8.69,20h-5l-1.72-4.23h-7.76l-1.66,4.23h-4.85Zm1.69,5.81-2.43,6.2h4.88Z"/><path class="cls-2" d="M213.08.51h7.45a18.85,18.85,0,0,1,2.61.18,7.16,7.16,0,0,1,2.35.73A4.52,4.52,0,0,1,227.19,3a4.72,4.72,0,0,1,.65,2.62,4.19,4.19,0,0,1-.95,2.81,5.2,5.2,0,0,1-2.5,1.59V10a5.72,5.72,0,0,1,1.79.55,4.81,4.81,0,0,1,1.38,1,4.46,4.46,0,0,1,.89,1.48,5.2,5.2,0,0,1,.31,1.81,4.8,4.8,0,0,1-.68,2.64,5.31,5.31,0,0,1-1.75,1.71,7.66,7.66,0,0,1-2.41.93,12.91,12.91,0,0,1-2.66.28h-8.18Zm4.4,8h3.19a4.49,4.49,0,0,0,1-.11,2.74,2.74,0,0,0,.89-.37,1.91,1.91,0,0,0,.63-.68,2,2,0,0,0,.24-1,1.85,1.85,0,0,0-.27-1,1.87,1.87,0,0,0-.69-.63,3.31,3.31,0,0,0-1-.32,5.75,5.75,0,0,0-1-.1h-3Zm0,8.26h3.95a4.88,4.88,0,0,0,1-.11,2.72,2.72,0,0,0,.95-.4,2.25,2.25,0,0,0,.69-.73,2.12,2.12,0,0,0,.27-1.1,1.76,1.76,0,0,0-.35-1.14,2.25,2.25,0,0,0-.89-.66A4.6,4.6,0,0,0,222,12.3a8.5,8.5,0,0,0-1.16-.08h-3.33v4.54Z"/><path class="cls-2" d="M252.86.51h7.73a13.6,13.6,0,0,1,2.89.3,6.86,6.86,0,0,1,2.4,1,4.93,4.93,0,0,1,1.64,1.86,6.31,6.31,0,0,1,.61,2.92,5.86,5.86,0,0,1-1.1,3.59A5,5,0,0,1,263.8,12l5.08,8.43H263.6l-4.17-8h-2.17v8h-4.4V.51Zm4.4,8.26h2.6q.59,0,1.26,0a4,4,0,0,0,1.2-.25,2.07,2.07,0,0,0,.89-.66,2,2,0,0,0,.35-1.27,2.12,2.12,0,0,0-.31-1.21,2.08,2.08,0,0,0-.79-.69,3.52,3.52,0,0,0-1.1-.32,9,9,0,0,0-1.21-.08h-2.88V8.77Z"/><path class="cls-2" d="M179,.51h3.64l8.69,20h-5l-1.72-4.23H176.9l-1.66,4.23h-4.85Zm1.69,5.81-2.43,6.2h4.88Z"/><path class="cls-2" d="M279.11.51h3.64l8.69,20h-5l-1.72-4.23H277l-1.66,4.23h-4.85Zm1.69,5.81-2.42,6.2h4.88Z"/><path class="cls-2" d="M153.66.51h7.45a18.85,18.85,0,0,1,2.61.18,7.16,7.16,0,0,1,2.35.73A4.52,4.52,0,0,1,167.76,3a4.72,4.72,0,0,1,.65,2.62,4.19,4.19,0,0,1-.95,2.81A5.2,5.2,0,0,1,165,10V10a5.72,5.72,0,0,1,1.79.55,4.81,4.81,0,0,1,1.38,1,4.46,4.46,0,0,1,.89,1.48,5.2,5.2,0,0,1,.31,1.81,4.8,4.8,0,0,1-.68,2.64,5.31,5.31,0,0,1-1.75,1.71,7.66,7.66,0,0,1-2.41.93,12.91,12.91,0,0,1-2.66.28h-8.18Zm4.4,8h3.19a4.49,4.49,0,0,0,1-.11,2.74,2.74,0,0,0,.89-.37,1.91,1.91,0,0,0,.63-.68,2,2,0,0,0,.24-1,1.85,1.85,0,0,0-.27-1,1.87,1.87,0,0,0-.69-.63,3.31,3.31,0,0,0-1-.32,5.75,5.75,0,0,0-1-.1h-3Zm0,8.26H162a4.88,4.88,0,0,0,1-.11,2.72,2.72,0,0,0,.95-.4,2.25,2.25,0,0,0,.69-.73,2.12,2.12,0,0,0,.27-1.1,1.76,1.76,0,0,0-.35-1.14,2.25,2.25,0,0,0-.89-.66,4.6,4.6,0,0,0-1.16-.31,8.5,8.5,0,0,0-1.16-.08h-3.33v4.54Z"/><path class="cls-2" d="M193.43.51h7.73a13.6,13.6,0,0,1,2.89.3,6.86,6.86,0,0,1,2.4,1,4.93,4.93,0,0,1,1.64,1.86,6.3,6.3,0,0,1,.61,2.92,5.86,5.86,0,0,1-1.1,3.59A5,5,0,0,1,204.37,12l5.08,8.43h-5.27l-4.17-8h-2.17v8h-4.4V.51Zm4.4,8.26h2.6q.59,0,1.26,0a4,4,0,0,0,1.2-.25,2.07,2.07,0,0,0,.89-.66,2,2,0,0,0,.35-1.27,2.12,2.12,0,0,0-.31-1.21,2.08,2.08,0,0,0-.79-.69,3.52,3.52,0,0,0-1.1-.32,9,9,0,0,0-1.21-.08h-2.88V8.77Z"/><path class="cls-2" d="M73.66.51H77.3l8.69,20H81L79.3,16.25H71.54l-1.66,4.23H65Zm1.69,5.81-2.43,6.2H77.8Z"/><path class="cls-2" d="M132.93.51h3.64l8.69,20h-5l-1.72-4.23h-7.76l-1.66,4.23H124.3Zm1.69,5.81-2.43,6.2h4.88Z"/><path class="cls-2" d="M88.42.51h6l8.49,13.88h.06V.51h4.4v20h-5.75L92.88,6.26h-.06V20.47h-4.4Z"/><path class="cls-2" d="M115.93,4.4h-5.51V.51h15.79V4.4h-5.88V20.47h-4.4Z"/><path class="cls-2" d="M9.78,20.79c-4.64,0-7.27-2.72-7.27-7.64V2.43H.25V.51H7.52V2.43H5V12.87c0,4.24,1.5,5.88,4.86,5.88S15,17.45,15,12.5V2.43H12.44V.51h7.27V2.43H17.45V12.84C17.44,17.76,15,20.79,9.78,20.79Z"/><path class="cls-2" d="M37.22,13.83c-.51,3.28-2.8,4.95-6.11,4.95-4.35,0-7-3.11-7-8.26V10.3c0-5.09,2.8-8.34,7-8.34,3.08,0,5.18,1.3,6,4.67H39.2V.51H37V2.72C36,.85,33.75,0,31.2,0c-5.57,0-9.59,4.33-9.59,10.32v.23c0,6.22,3.59,10.24,9.44,10.24,4.45,0,7.63-2.22,8.41-6.73Z"/><path class="cls-2" d="M63.85,14.33c0,3.8-3.22,6.46-7.82,6.46-3.69,0-6.33-1.24-7.87-3.69l3-2.58a6.39,6.39,0,0,0,5.22,2.72c1.91,0,3.09-.83,3.09-2.16,0-1.69-1.1-2.06-3.88-2.84-3.28-.92-6.63-2.34-6.63-6S52.08,0,56.52,0c1.78,0,5,.42,6.81,3.19l-2.8,2.44A5.27,5.27,0,0,0,56,3.55a2.42,2.42,0,0,0-2.69,2.29c0,1.46,1.94,2.09,4.29,2.72C60.63,9.34,63.85,10.51,63.85,14.33Z"/></g></g></svg>