<?xml version="1.0" encoding="utf-8"?>
<!-- Generator: Adobe Illustrator 21.1.0, SVG Export Plug-In . SVG Version: 6.00 Build 0)  -->
<svg version="1.1" id="Layer_1" xmlns="http://www.w3.org/2000/svg" xmlns:xlink="http://www.w3.org/1999/xlink" x="0px" y="0px"
	 viewBox="0 0 300 300" style="enable-background:new 0 0 300 300;" xml:space="preserve">
<style type="text/css">
	.st0{fill:#0078B0;}
	.st1{fill:#74BDE9;}
	.st2{fill:#8CA4BB;}
	.st3{fill:#A4C840;}
	.st4{fill:#8DB8D6;}
	.st5{fill:#6788A7;}
	.st6{fill:#5C8DAF;}
	.st7{fill:#BCC47A;}
	.st8{fill:#AFCEE0;}
</style>
<g>
	<path class="st0" d="M35.4,147.9c0,0.3,0,0.6,0,1V147.9z M7.2,147.9c0,0.6,0,1.3,0,2.1v0.1c0,3.4,0.2,6.7,0.6,10c0.1,1,0.3,2,0.5,3
		c0.2,1.3,0.4,2.6,0.8,3.9c4.6,20,17.9,37.6,39.9,52.6c14.6,10,30.7,17.5,48.5,22.3c0.2-0.2,0.4-0.3,0.6-0.2s0.4,0.1,0.7,0.2
		l3.3,0.8c11.9,2.3,26.8,2.7,44.5,1.2c4.7-0.4,9.5-0.9,14.4-1.5c4.1-0.8,8.2-1.8,12.3-2.9c11.8-3,22.2-7.1,31.3-12.2
		c-3.4,1.3-6.9,2.5-10.5,3.6c-15.9,3.9-31.1,6.1-45.3,6.5h-0.1c-0.7-0.1-1.4-0.1-2.1-0.1c-0.8,0-1.7,0-2.4-0.1
		c-12.9-0.6-26.5-2.7-40.7-6.3c-5-1.5-9.8-3.2-14.3-5c-16.7-8.3-30.6-20-41.5-35.1c-0.1-0.1-0.1-0.1-0.2-0.2
		c-2.4-3.6-4.4-7.3-6.3-11.2c-0.1-0.1-0.1-0.2-0.2-0.3c-1.1-2.4-2-5.1-3-7.8c-0.6-2.6-1.1-5.4-1.6-8.2c-0.1-0.1-0.1-0.2-0.1-0.3
		l-0.2-1.1l27.7-3.8c-1.3-7.3-1.2-14.3,0.2-21l-27.3-3.8v-0.6c0-0.3,0.1-0.6,0.2-0.8c0.2-1.8,0.6-3.4,1.1-5.1c0.9-2.8,1.9-5.4,3-7.8
		c0.1-0.1,0.1-0.2,0.2-0.3c1.8-3.9,3.9-7.7,6.3-11.3c0.1-0.1,0.1-0.1,0.2-0.2c10.9-15.2,24.8-26.9,41.5-35.1
		c0.6-0.2,1.3-0.6,2.1-0.8c9-4.9,19.4-8.9,31.3-11.9c4-1.1,8.1-2,12.2-2.8c17.7-2.4,32.9-3,45.7-2c1.1,0.1,2.1,0.2,3.2,0.3
		c3.6,0.4,7,0.9,10.2,1.5c-3.4-0.8-6.8-1.4-10.3-2c-1.1-0.2-2.1-0.4-3.2-0.4c-9.8-1.4-20-2.1-30.6-2.1c-1.1,0-2.2,0-3.3,0
		c-16.1,0.3-31.2,2.1-45.4,5.6c-19.2,4.6-36.7,12.4-52.2,23.2c-20,13.7-32.9,29.7-38.5,47.7c-0.4,1.5-0.8,3-1.2,4.4
		c-0.3,1-0.5,2-0.7,3.1C7.8,139.6,7.3,143.8,7.2,147.9z"/>
	<path class="st1" d="M262.4,148.9c-0.1-0.4-0.1-0.7-0.1-1h0.1V148.9z M135,56.4c-4.1,0.8-8.2,1.7-12.2,2.8
		c-11.9,3.1-22.3,7-31.3,11.9c3.8-1.5,7.8-2.9,12.2-4.1c0.6-0.2,1.2-0.4,1.8-0.4c14.4-3.6,28.2-5.6,41.3-6c0.7,0,1.4,0,2.1,0h0.1
		c0.6,0,1.1,0,1.8,0c13,0.4,26.7,2.5,41,5.9c0.8,0.2,1.7,0.4,2.6,0.6c5,1.5,9.7,3.2,14.3,5c2.9,1.4,5.6,2.9,8.3,4.6
		c0.2,0.1,0.4,0.3,0.5,0.4c2.2,1.3,4.4,2.8,6.7,4.4c9.9,7,18.5,15.6,25.9,25.8c0,0.1,0,0.1,0.1,0.2c1.5,2.4,3,4.7,4.3,7.3
		c0.7,1.3,1.4,2.6,2.1,4c0,0.1,0,0.2,0.1,0.3c1.1,2.3,2,5,3,7.8c0.4,1.8,0.9,3.9,1.2,5.9l-7.5,1c-45.4,6.3-80.9,10.9-106.5,13.7
		l0.1,0.6c25.7,2.8,61.7,7.4,107.8,13.8l6.7,0.9l-0.1,0.4c0,0.1,0,0.1,0,0.2c-0.1,0.1-0.1,0.3-0.1,0.4v0.1l-0.1,0.8
		c-0.2,0.7-0.4,1.6-0.4,2.4c-0.3,1.4-0.6,2.8-0.9,4.1c-0.1,0.1-0.1,0.3-0.2,0.4c0,0.1,0,0.1,0,0.1c-1,2.8-1.9,5.4-3,7.8
		c-0.1,0.1-0.1,0.2-0.1,0.3c-1.9,3.8-4.1,7.5-6.2,11l-0.2,0.3l-0.1,0.2c-4.1,5.7-8.6,10.8-13.4,15.5c-0.7,0.6-1.3,1.1-1.9,1.8
		c-7.8,7.1-16.4,13-26.1,17.8c-1.3,0.4-2.6,1-3.7,1.4c-9,5.1-19.5,9.1-31.3,12.2c-4.1,1.1-8.2,2.1-12.3,2.9c-5,0.6-9.8,1.1-14.4,1.5
		c-17.7,1.5-32.6,1.1-44.5-1.2l-3.3-0.8l-0.1,0.4c13.4,3.5,27.6,5.5,42.7,6c1.8,0.1,3.5,0.1,5.2,0.2c1.1,0,2.1,0,3.3,0
		c0.1,0,0.1,0,0.2,0c0-0.1,0-0.1,0.1,0c0.1-0.1,0.2-0.1,0.3,0h0.5c10.2-0.1,20-0.8,29.6-2.1c26.5-3.7,50-12.7,70.4-26.7
		c21.6-15,34.9-32.3,39.7-52.1c0.4-1.5,0.7-3,0.9-4.4c0.2-1,0.4-2,0.4-3c0.4-3.3,0.6-6.7,0.7-10c-0.1-0.8-0.1-1.5-0.1-2.1
		c-0.1-4.1-0.5-8.2-1.3-12.2c-0.1-1.1-0.3-2.1-0.6-3.1c-0.4-1.6-0.9-3.3-1.4-5l-0.9,0.3l0.2-0.1l0.6-0.3
		c-5.7-17.7-18.5-33.5-38.3-47.3c-3.9-2.6-7.8-5.1-11.9-7.4C227,66.4,213.5,61.2,199,57.7c-0.2-0.1-0.4-0.1-0.5-0.2
		c-0.3-0.1-0.4-0.1-0.7-0.2l-3.3-0.7c-3.2-0.6-6.7-1.1-10.2-1.5c-1.1-0.1-2.1-0.2-3.2-0.3C167.9,53.4,152.7,54,135,56.4z"/>
	<path class="st2" d="M37,132.5v0.6V132.5z"/>
	<path class="st3" d="M69.5,137.7c-0.7,3.3-0.9,6.7-1,10.2c0.1,3.2,0.3,6.2,0.7,9.2c0.1,0.7,0.2,1.4,0.4,2.1c0,0.4,0,0.7,0.2,1v0.1
		c0.2,1,0.3,2,0.6,3.1c0.4,1.5,0.8,3,1.2,4.4c3.3,10.7,9.2,20.7,17.7,29.9c8.1,8.9,19.9,16.2,35.2,21.7c5.9,1.8,11.9,3.3,18.5,4.6
		c1.2,0.1,2.4,0.3,3.7,0.4c1.8,0.3,3.5,0.4,5.3,0.5c4.5,0.4,8.9,0.7,13.4,0.7h0.9c0.8,0,1.7,0,2.5,0c0.6,0,1.2,0,1.8,0h0.6
		c12.3-0.3,22.9-1.5,31.8-3.7c0-0.1,0-0.1,0.1,0c12.2-2.9,22.6-7.5,31.5-13.8c0.6-0.6,1.3-1.1,1.9-1.8c4.8-4.7,9.3-9.9,13.4-15.5
		l0,0l0.2-0.2l0.1-0.2l0.1-0.1c2.2-3.5,4.3-7.2,6.2-11c0-0.1,0-0.2,0.1-0.3c1.1-2.3,2-5,3-7.8l-0.5-0.2l-0.1-0.1
		c-2.8,6.7-6.4,12.3-10.7,17c-3.7,3.9-7.6,7.4-11.4,10.4c-7.2,5.5-15.7,9.6-25.5,12.6c-10.9,3.1-21.9,4.8-33.1,5.1
		c-11.1,0.3-21.6-1.1-31.4-4.1c-5-1.5-9.9-3.5-14.6-5.9c-19.3-11.8-31.1-26.3-35.1-43.5c-0.3-1.5-0.5-2.9-0.7-4.2
		c-0.1-0.2-0.1-0.6-0.2-0.8c-0.1-0.8-0.3-1.7-0.4-2.5v-0.4c-0.5-4.6-0.5-9.1,0-13.5c0-0.2,0-0.3,0-0.4c0-0.3,0-0.4,0.1-0.7
		c0.1-1,0.3-1.8,0.4-2.8c0.2-1.3,0.4-2.7,0.7-4.1c4.1-17.3,15.8-31.8,35.1-43.6c4.8-2.4,9.6-4.3,14.6-5.8c9.8-3.1,20.3-4.5,31.4-4.2
		c11.2,0.2,22.2,1.8,33.1,5.1c9.8,2.9,18.3,7,25.5,12.5c5.9,4.8,11.8,10.5,17.6,17.1c-1.3-2.6-2.8-4.9-4.3-7.3
		c-0.1-0.1-0.1-0.1-0.1-0.2c-7.4-10.2-16.1-18.8-25.9-25.8c-2.1-1-4.2-1.9-6.4-2.8c-0.2-0.1-0.4-0.1-0.4-0.2
		c-16.8-5-32.9-7.7-48.4-8c-7.4,0.1-14.8,0.5-22.1,1.4c-1.2,0.1-2.4,0.2-3.7,0.4c-6.6,1.2-12.7,2.7-18.5,4.6
		c-15.3,5.5-27,12.8-35.2,21.7c-8.5,9.2-14.4,19.2-17.7,29.9c-0.4,1.5-0.9,3-1.2,4.4c-0.3,1-0.4,2-0.6,3.1v0.1
		C69.7,136.4,69.6,137.1,69.5,137.7z"/>
	<path class="st0" d="M137.6,146.9l-35.1-4.8c-1.3,3.5-1.3,6.9,0.2,10.1L137.6,146.9z"/>
	<path class="st4" d="M146.7,147.1c-0.4,0.1-0.9,0.1-1.3,0.2v0.3c0.4,0,1,0.1,1.4,0.2L146.7,147.1z"/>
	<polygon class="st5" points="289.3,127.6 288.7,127.8 289.4,127.7 	"/>
	<polygon class="st6" points="289.4,127.7 288.7,127.8 288.5,127.9 	"/>
	<path class="st7" d="M261.2,163L261.2,163c-0.5,2.9-1.2,5.6-2.2,8.1l0.5,0.1c0.1-0.2,0.1-0.4,0.2-0.4c0.3-1.3,0.6-2.7,0.9-4.1
		c0.1-0.8,0.3-1.7,0.4-2.4l0.1-0.8v-0.1C261.1,163.3,261.1,163.1,261.2,163z"/>
	<path class="st8" d="M259,171.2l0.5,0.2c0,0,0,0,0-0.1L259,171.2z"/>
	<polygon class="st4" points="250.3,190.3 250.2,190.4 250.1,190.6 	"/>
	<path class="st2" d="M250,190.8l0.1-0.2L250,190.8z"/>
	<path class="st4" d="M98.2,241.7c-0.3-0.1-0.4,0-0.6,0.2c0.4,0.1,0.8,0.3,1.2,0.4l0.1-0.4C98.6,241.8,98.4,241.8,98.2,241.7z"/>
</g>
</svg>
