<svg xmlns="http://www.w3.org/2000/svg" viewBox="0 0 477.24 80.51"><defs><style>.cls-1{isolation:isolate;}.cls-2{fill:#273a5e;}</style></defs><title>ME-logo</title><g id="Layer_2" data-name="Layer 2"><g id="Template"><g class="cls-1"><path class="cls-2" d="M10.92,72.49H0V69.63H3.78V45.31H0V42.45H9.45l8.7,23.23,8.57-23.23H36v2.86H32.18V69.63H36v2.86H24.74V69.63h3.78V46.27l-10,26.21H17.43L7.14,46.27V69.63h3.78Z"/><path class="cls-2" d="M37.93,61.73V61.4c0-6.64,4.24-11.26,10.29-11.26,5.08,0,9.87,3.07,9.87,10.92v1.13H41.55c.17,5,2.56,7.77,7.06,7.77,3.4,0,5.38-1.26,5.84-3.82h3.49c-.76,4.41-4.41,6.72-9.37,6.72C42.34,72.86,37.93,68.5,37.93,61.73Zm16.59-2.35c-.34-4.54-2.69-6.34-6.3-6.34s-6,2.44-6.55,6.34Z"/><path class="cls-2" d="M78,50.52h3.07V58h-3C77.31,55,75.3,53,71.56,53c-4,0-7.06,3.19-7.06,8.36v.34c0,5.38,2.94,8.23,7.18,8.23,3.11,0,5.92-1.81,6.3-5.38h3.23c-.46,4.75-4.28,8.28-9.58,8.28-6.13,0-10.75-4.33-10.75-11.13V61.4c0-6.72,4.79-11.26,10.67-11.26,3.7,0,5.54,1.47,6.43,3.23Z"/><path class="cls-2" d="M83.33,72.49V69.76H86.4V42.87H83.25V40h6.64v14.2a7.55,7.55,0,0,1,6.89-4.07c4.41,0,7.65,2.35,7.65,8.7V69.76h3.07v2.73h-9.7V69.76h3.15V58.58c0-3.7-1.68-5.42-5.08-5.42a5.69,5.69,0,0,0-6,5.92V69.76H93v2.73Z"/><path class="cls-2" d="M116.9,72.86c-4,0-7.14-2-7.14-6.47,0-5.12,5.29-6.81,10.84-6.81h3.07V58c0-3.7-1.47-5-4.62-5-2.94,0-4.54,1.09-4.87,3.95h-3.49c.42-5.17,4.37-6.85,8.53-6.85s7.94,1.51,7.94,7.86V69.76h2.94v2.73h-6.43v-3C122.19,71.73,120,72.86,116.9,72.86Zm6.76-8.07V62.07h-2.94c-4.33,0-7.48,1.13-7.48,4.33,0,2,1,3.7,4,3.7C120.84,70.09,123.66,68.2,123.66,64.8Z"/><path class="cls-2" d="M132.46,72.49V69.76h3.07V53.37h-3.15V50.52H139v3.7a7.55,7.55,0,0,1,6.89-4.07c4.41,0,7.65,2.35,7.65,8.7V69.76h3.07v2.73h-9.7V69.76h3.15V58.58c0-3.7-1.68-5.42-5.08-5.42a5.69,5.69,0,0,0-6,5.92V69.76h3.15v2.73Z"/><path class="cls-2" d="M159,72.49V69.76h3.07V53.37h-3.15V50.52h6.64V69.76h3.15v2.73Zm2.23-28.9a2.39,2.39,0,0,1,4.79,0,2.39,2.39,0,1,1-4.79,0Z"/><path class="cls-2" d="M187.3,50.52h3.07V58h-3C186.63,55,184.61,53,180.87,53c-4,0-7.06,3.19-7.06,8.36v.34c0,5.38,2.94,8.23,7.18,8.23,3.11,0,5.92-1.81,6.3-5.38h3.23c-.46,4.75-4.28,8.28-9.58,8.28-6.13,0-10.75-4.33-10.75-11.13V61.4c0-6.72,4.79-11.26,10.67-11.26,3.7,0,5.54,1.47,6.43,3.23Z"/><path class="cls-2" d="M200.7,72.86c-4,0-7.14-2-7.14-6.47,0-5.12,5.29-6.81,10.84-6.81h3.07V58c0-3.7-1.47-5-4.62-5-2.94,0-4.54,1.09-4.87,3.95h-3.49c.42-5.17,4.37-6.85,8.53-6.85S211,51.65,211,58V69.76h2.94v2.73h-6.43v-3C206,71.73,203.85,72.86,200.7,72.86Zm6.76-8.07V62.07h-2.94c-4.33,0-7.48,1.13-7.48,4.33,0,2,1,3.7,4,3.7C204.65,70.09,207.47,68.2,207.47,64.8Z"/><path class="cls-2" d="M216.27,72.49V69.76h3.07V42.87h-3.15V40h6.68V69.76h3.07v2.73Z"/><path class="cls-2" d="M237.77,69.63h3.78V45.31h-3.78V42.45h22.31v7h-3.4V45.31H245.21V55.64h9.2V53h3v8.36h-3V58.62h-9.2v11h12.31V64.8h3.4v7.69H237.77Z"/><path class="cls-2" d="M264,72.49V69.76h3.07V53.37h-3.15V50.52h6.64v3.7a7.55,7.55,0,0,1,6.89-4.07c4.41,0,7.64,2.35,7.64,8.7V69.76h3.07v2.73h-9.7V69.76h3.15V58.58c0-3.7-1.68-5.42-5.08-5.42a5.69,5.69,0,0,0-6,5.92V69.76h3.15v2.73Z"/><path class="cls-2" d="M289.92,73.75h3.57c.5,2.52,2.6,3.82,6.34,3.82,4.33,0,7.06-2.06,7.06-6.76V67.61a9.1,9.1,0,0,1-7.44,4.16c-5.75,0-10-4.37-10-10.42v-.29c0-6,4.2-10.92,10.25-10.92A7.87,7.87,0,0,1,306.89,54V50.52h6.47v2.86h-3V71c0,6.39-4.37,9.49-10.5,9.49C293.37,80.51,290.51,77.44,289.92,73.75ZM307,61.1v-.29c0-4.92-2.69-7.77-7-7.77s-7,3.23-7,7.86v.34c0,4.79,3.07,7.65,6.76,7.65C303.91,68.87,307,66,307,61.1Z"/><path class="cls-2" d="M315.74,72.49V69.76h3.07V53.37h-3.15V50.52h6.64V69.76h3.15v2.73ZM318,43.58a2.39,2.39,0,0,1,4.79,0,2.39,2.39,0,0,1-4.79,0Z"/><path class="cls-2" d="M327.77,72.49V69.76h3.07V53.37h-3.15V50.52h6.64v3.7a7.55,7.55,0,0,1,6.89-4.07c4.41,0,7.64,2.35,7.64,8.7V69.76h3.07v2.73h-9.7V69.76h3.15V58.58c0-3.7-1.68-5.42-5.08-5.42a5.69,5.69,0,0,0-6,5.92V69.76h3.15v2.73Z"/><path class="cls-2" d="M353.35,61.73V61.4c0-6.64,4.24-11.26,10.29-11.26,5.08,0,9.87,3.07,9.87,10.92v1.13H357c.17,5,2.56,7.77,7.06,7.77,3.4,0,5.38-1.26,5.84-3.82h3.49c-.76,4.41-4.41,6.72-9.37,6.72C357.76,72.86,353.35,68.5,353.35,61.73Zm16.59-2.35c-.34-4.54-2.69-6.34-6.3-6.34s-6,2.44-6.55,6.34Z"/><path class="cls-2" d="M376.4,61.73V61.4c0-6.64,4.24-11.26,10.29-11.26,5.08,0,9.87,3.07,9.87,10.92v1.13H380c.17,5,2.56,7.77,7.06,7.77,3.4,0,5.38-1.26,5.84-3.82h3.49c-.76,4.41-4.41,6.72-9.37,6.72C380.81,72.86,376.4,68.5,376.4,61.73ZM393,59.38c-.34-4.54-2.69-6.34-6.3-6.34s-6,2.44-6.55,6.34Z"/><path class="cls-2" d="M398.71,72.49V69.76h3.07V53.37h-3.15V50.52h6.64v4.2c1-2.31,3.28-4.54,7.9-4.58v3.44c-4.79,0-7.9,1.47-7.9,6.85v9.32h3.36v2.73Z"/><path class="cls-2" d="M415.88,72.49V69.76h3.07V53.37h-3.15V50.52h6.64V69.76h3.15v2.73Zm2.23-28.9a2.39,2.39,0,0,1,4.79,0,2.39,2.39,0,1,1-4.79,0Z"/><path class="cls-2" d="M427.91,72.49V69.76H431V53.37h-3.15V50.52h6.64v3.7a7.55,7.55,0,0,1,6.89-4.07c4.41,0,7.64,2.35,7.64,8.7V69.76h3.07v2.73h-9.7V69.76h3.15V58.58c0-3.7-1.68-5.42-5.08-5.42a5.69,5.69,0,0,0-6,5.92V69.76h3.15v2.73Z"/><path class="cls-2" d="M453.8,73.75h3.57c.5,2.52,2.6,3.82,6.34,3.82,4.33,0,7.06-2.06,7.06-6.76V67.61a9.1,9.1,0,0,1-7.44,4.16c-5.75,0-10-4.37-10-10.42v-.29c0-6,4.2-10.92,10.25-10.92A7.87,7.87,0,0,1,470.77,54V50.52h6.47v2.86h-3V71c0,6.39-4.37,9.49-10.5,9.49C457.24,80.51,454.39,77.44,453.8,73.75ZM470.9,61.1v-.29c0-4.92-2.69-7.77-7-7.77s-7,3.23-7,7.86v.34c0,4.79,3.07,7.65,6.76,7.65C467.79,68.87,470.9,66,470.9,61.1Z"/></g><path class="cls-2" d="M238.44.51h3.64l8.69,20h-5l-1.72-4.23h-7.76l-1.66,4.23h-4.85Zm1.69,5.81-2.43,6.2h4.88Z"/><path class="cls-2" d="M213.08.51h7.45a18.85,18.85,0,0,1,2.61.18,7.16,7.16,0,0,1,2.35.73A4.52,4.52,0,0,1,227.19,3a4.72,4.72,0,0,1,.65,2.62,4.19,4.19,0,0,1-.95,2.81,5.2,5.2,0,0,1-2.5,1.59V10a5.72,5.72,0,0,1,1.79.55,4.81,4.81,0,0,1,1.38,1,4.46,4.46,0,0,1,.89,1.48,5.2,5.2,0,0,1,.31,1.81,4.8,4.8,0,0,1-.68,2.64,5.31,5.31,0,0,1-1.75,1.71,7.66,7.66,0,0,1-2.41.93,12.91,12.91,0,0,1-2.66.28h-8.18Zm4.4,8h3.19a4.49,4.49,0,0,0,1-.11,2.74,2.74,0,0,0,.89-.37,1.91,1.91,0,0,0,.63-.68,2,2,0,0,0,.24-1,1.85,1.85,0,0,0-.27-1,1.87,1.87,0,0,0-.69-.63,3.31,3.31,0,0,0-1-.32,5.75,5.75,0,0,0-1-.1h-3Zm0,8.26h3.95a4.88,4.88,0,0,0,1-.11,2.72,2.72,0,0,0,.95-.4,2.25,2.25,0,0,0,.69-.73,2.12,2.12,0,0,0,.27-1.1,1.76,1.76,0,0,0-.35-1.14,2.25,2.25,0,0,0-.89-.66A4.6,4.6,0,0,0,222,12.3a8.5,8.5,0,0,0-1.16-.08h-3.33v4.54Z"/><path class="cls-2" d="M252.86.51h7.73a13.6,13.6,0,0,1,2.89.3,6.86,6.86,0,0,1,2.4,1,4.93,4.93,0,0,1,1.64,1.86,6.31,6.31,0,0,1,.61,2.92,5.86,5.86,0,0,1-1.1,3.59A5,5,0,0,1,263.8,12l5.08,8.43H263.6l-4.17-8h-2.17v8h-4.4V.51Zm4.4,8.26h2.6q.59,0,1.26,0a4,4,0,0,0,1.2-.25,2.07,2.07,0,0,0,.89-.66,2,2,0,0,0,.35-1.27,2.12,2.12,0,0,0-.31-1.21,2.08,2.08,0,0,0-.79-.69,3.52,3.52,0,0,0-1.1-.32,9,9,0,0,0-1.21-.08h-2.88V8.77Z"/><path class="cls-2" d="M179,.51h3.64l8.69,20h-5l-1.72-4.23H176.9l-1.66,4.23h-4.85Zm1.69,5.81-2.43,6.2h4.88Z"/><path class="cls-2" d="M279.11.51h3.64l8.69,20h-5l-1.72-4.23H277l-1.66,4.23h-4.85Zm1.69,5.81-2.42,6.2h4.88Z"/><path class="cls-2" d="M153.66.51h7.45a18.85,18.85,0,0,1,2.61.18,7.16,7.16,0,0,1,2.35.73A4.52,4.52,0,0,1,167.76,3a4.72,4.72,0,0,1,.65,2.62,4.19,4.19,0,0,1-.95,2.81A5.2,5.2,0,0,1,165,10V10a5.72,5.72,0,0,1,1.79.55,4.81,4.81,0,0,1,1.38,1,4.46,4.46,0,0,1,.89,1.48,5.2,5.2,0,0,1,.31,1.81,4.8,4.8,0,0,1-.68,2.64,5.31,5.31,0,0,1-1.75,1.71,7.66,7.66,0,0,1-2.41.93,12.91,12.91,0,0,1-2.66.28h-8.18Zm4.4,8h3.19a4.49,4.49,0,0,0,1-.11,2.74,2.74,0,0,0,.89-.37,1.91,1.91,0,0,0,.63-.68,2,2,0,0,0,.24-1,1.85,1.85,0,0,0-.27-1,1.87,1.87,0,0,0-.69-.63,3.31,3.31,0,0,0-1-.32,5.75,5.75,0,0,0-1-.1h-3Zm0,8.26H162a4.88,4.88,0,0,0,1-.11,2.72,2.72,0,0,0,.95-.4,2.25,2.25,0,0,0,.69-.73,2.12,2.12,0,0,0,.27-1.1,1.76,1.76,0,0,0-.35-1.14,2.25,2.25,0,0,0-.89-.66,4.6,4.6,0,0,0-1.16-.31,8.5,8.5,0,0,0-1.16-.08h-3.33v4.54Z"/><path class="cls-2" d="M193.43.51h7.73a13.6,13.6,0,0,1,2.89.3,6.86,6.86,0,0,1,2.4,1,4.93,4.93,0,0,1,1.64,1.86,6.3,6.3,0,0,1,.61,2.92,5.86,5.86,0,0,1-1.1,3.59A5,5,0,0,1,204.37,12l5.08,8.43h-5.27l-4.17-8h-2.17v8h-4.4V.51Zm4.4,8.26h2.6q.59,0,1.26,0a4,4,0,0,0,1.2-.25,2.07,2.07,0,0,0,.89-.66,2,2,0,0,0,.35-1.27,2.12,2.12,0,0,0-.31-1.21,2.08,2.08,0,0,0-.79-.69,3.52,3.52,0,0,0-1.1-.32,9,9,0,0,0-1.21-.08h-2.88V8.77Z"/><path class="cls-2" d="M73.66.51H77.3l8.69,20H81L79.3,16.25H71.54l-1.66,4.23H65Zm1.69,5.81-2.43,6.2H77.8Z"/><path class="cls-2" d="M132.93.51h3.64l8.69,20h-5l-1.72-4.23h-7.76l-1.66,4.23H124.3Zm1.69,5.81-2.43,6.2h4.88Z"/><path class="cls-2" d="M88.42.51h6l8.49,13.88h.06V.51h4.4v20h-5.75L92.88,6.26h-.06V20.47h-4.4Z"/><path class="cls-2" d="M115.93,4.4h-5.51V.51h15.79V4.4h-5.88V20.47h-4.4Z"/><path class="cls-2" d="M9.78,20.79c-4.64,0-7.27-2.72-7.27-7.64V2.43H.25V.51H7.52V2.43H5V12.87c0,4.24,1.5,5.88,4.86,5.88S15,17.45,15,12.5V2.43H12.44V.51h7.27V2.43H17.45V12.84C17.44,17.76,15,20.79,9.78,20.79Z"/><path class="cls-2" d="M37.22,13.83c-.51,3.28-2.8,4.95-6.11,4.95-4.35,0-7-3.11-7-8.26V10.3c0-5.09,2.8-8.34,7-8.34,3.08,0,5.18,1.3,6,4.67H39.2V.51H37V2.72C36,.85,33.75,0,31.2,0c-5.57,0-9.59,4.33-9.59,10.32v.23c0,6.22,3.59,10.24,9.44,10.24,4.45,0,7.63-2.22,8.41-6.73Z"/><path class="cls-2" d="M63.85,14.33c0,3.8-3.22,6.46-7.82,6.46-3.69,0-6.33-1.24-7.87-3.69l3-2.58a6.39,6.39,0,0,0,5.22,2.72c1.91,0,3.09-.83,3.09-2.16,0-1.69-1.1-2.06-3.88-2.84-3.28-.92-6.63-2.34-6.63-6S52.08,0,56.52,0c1.78,0,5,.42,6.81,3.19l-2.8,2.44A5.27,5.27,0,0,0,56,3.55a2.42,2.42,0,0,0-2.69,2.29c0,1.46,1.94,2.09,4.29,2.72C60.63,9.34,63.85,10.51,63.85,14.33Z"/></g></g></svg>